<?xml version="1.0" standalone="no"?>
<!DOCTYPE svg PUBLIC "-//W3C//DTD SVG 20010904//EN"
 "http://www.w3.org/TR/2001/REC-SVG-20010904/DTD/svg10.dtd">
<svg version="1.0" xmlns="http://www.w3.org/2000/svg"
 width="612.000000pt" height="612.000000pt" viewBox="0 0 612.000000 612.000000"
 preserveAspectRatio="xMidYMid meet">

<g transform="translate(0.000000,612.000000) scale(0.100000,-0.100000)"
fill="#000000" stroke="none">
<path d="M1787 5475 c-102 -26 -159 -70 -203 -157 -72 -141 -73 -416 -3 -731
19 -88 19 -88 -2 -190 -90 -441 29 -824 324 -1048 82 -62 84 -65 80 -99 -4
-27 -18 -46 -57 -80 -283 -248 -414 -566 -377 -918 14 -132 29 -190 82 -303
l41 -85 -31 -50 c-121 -194 -134 -503 -31 -710 37 -72 37 -73 19 -101 -10 -16
-26 -57 -34 -91 -13 -51 -14 -73 -5 -115 33 -157 124 -189 535 -192 229 -1
319 7 383 35 43 19 49 19 118 5 160 -33 549 -28 706 9 52 12 59 12 85 -5 57
-38 152 -48 403 -44 129 2 255 4 280 4 101 1 194 50 230 122 45 86 36 180 -26
282 l-36 58 25 42 c105 181 126 466 55 742 -24 94 -94 247 -166 363 -50 80
-56 102 -29 102 7 0 45 16 85 35 159 76 296 256 346 455 20 79 40 288 33 346
l-4 41 51 22 c28 11 59 21 69 21 54 0 145 67 177 131 91 178 -11 428 -218 532
-109 54 -260 70 -392 41 l-25 -5 -1 188 c0 152 -4 205 -21 277 l-20 89 28 139
c68 338 57 587 -32 722 -56 84 -139 124 -280 133 -161 11 -356 -43 -547 -151
l-60 -34 -78 19 c-216 51 -483 51 -700 -1 l-76 -18 -58 34 c-73 44 -204 99
-295 125 -94 27 -270 34 -348 14z m339 -141 c84 -24 232 -93 306 -142 39 -25
39 -25 91 -9 220 68 509 72 743 12 l96 -25 56 34 c209 125 416 183 565 158 83
-15 115 -32 145 -78 37 -56 52 -136 52 -274 0 -143 -9 -215 -46 -387 l-26
-122 22 -108 c34 -164 38 -351 10 -482 -56 -272 -208 -456 -484 -587 -399
-188 -1071 -188 -1481 0 -254 117 -423 316 -480 566 -34 149 -28 361 15 530
18 73 18 77 0 150 -41 165 -54 263 -54 430 -1 176 11 238 55 295 61 77 230 93
415 39z m2418 -1509 c85 -18 141 -50 199 -115 72 -80 98 -197 61 -276 -15 -32
-48 -64 -65 -64 -4 0 -12 30 -19 67 -18 104 -41 138 -79 114 -11 -7 -12 -24
-7 -79 4 -39 4 -87 1 -106 -7 -33 -11 -36 -60 -47 -74 -16 -82 -11 -84 52 -1
77 -27 156 -52 164 -41 13 -49 -9 -42 -118 l6 -100 -47 5 c-33 4 -59 15 -87
38 -45 36 -73 36 -77 0 -8 -66 90 -139 188 -141 30 0 67 -3 83 -6 l27 -5 0
-102 c0 -251 -63 -427 -202 -563 -96 -94 -198 -130 -343 -120 -85 5 -136 22
-197 64 -21 14 -44 23 -53 19 -73 -28 72 -154 196 -171 24 -4 53 -8 65 -10 24
-5 187 -271 234 -383 50 -118 73 -246 73 -407 1 -154 -15 -240 -57 -323 -45
-88 -43 -87 -106 -53 -78 42 -163 61 -272 61 -108 0 -189 -18 -265 -59 l-53
-29 0 313 c0 523 -18 648 -110 748 -57 63 -115 91 -227 113 -88 17 -338 19
-433 3 -78 -12 -164 -49 -182 -78 -7 -12 -17 -21 -22 -21 -5 0 -40 23 -78 51
-105 78 -137 150 -113 257 4 20 1 33 -10 42 -38 32 -85 -44 -85 -135 0 -112
61 -185 265 -320 137 -90 170 -126 191 -211 l7 -26 -42 22 c-48 24 -79 23 -95
-2 -9 -14 0 -26 51 -73 65 -58 68 -69 33 -114 l-18 -25 -35 31 c-38 34 -99 58
-122 49 -28 -10 -16 -51 25 -91 22 -21 40 -42 40 -46 0 -4 -17 -15 -37 -24
-58 -28 -183 -16 -307 28 -147 54 -238 109 -337 207 -72 71 -93 99 -127 170
-47 101 -61 155 -72 273 -24 292 72 551 282 753 35 33 76 70 92 82 l28 22 55
-50 c30 -27 83 -63 119 -80 79 -38 227 -77 328 -86 42 -4 76 -9 76 -12 0 -3
-12 -35 -26 -71 -22 -54 -25 -76 -21 -124 11 -123 89 -220 214 -267 153 -58
340 14 414 158 19 38 24 62 24 127 0 75 -12 117 -52 185 -2 3 36 11 84 18 183
25 313 76 405 161 59 54 108 136 108 180 0 20 10 32 40 48 63 37 156 119 216
191 51 62 144 227 144 256 0 16 38 34 125 56 86 23 130 24 219 5z m-1506 -909
c121 -63 161 -180 99 -291 -26 -45 -88 -92 -134 -101 -30 -6 -33 -4 -33 18 0
14 9 33 20 43 27 24 26 73 -2 102 -30 32 -81 31 -113 -2 -30 -29 -32 -64 -5
-98 24 -30 26 -67 5 -67 -42 0 -133 69 -161 122 -21 40 -18 131 6 178 23 44
72 86 127 106 48 18 147 13 191 -10z m172 -715 c79 -25 141 -75 164 -130 31
-79 40 -216 41 -626 l0 -400 -27 -40 c-40 -58 -60 -123 -56 -180 3 -49 3 -49
-32 -57 -109 -24 -583 -26 -672 -3 -27 7 -28 9 -28 76 0 79 -8 101 -67 186
l-43 62 0 199 0 200 30 7 c17 4 50 21 73 38 23 18 61 44 84 60 59 38 89 88
108 182 31 149 5 237 -99 331 -65 59 -65 73 -1 94 107 35 413 36 525 1z
m-1357 -488 c137 -110 331 -199 478 -221 l54 -7 8 -159 c4 -87 6 -160 4 -162
-2 -3 -28 7 -58 21 -158 72 -419 44 -555 -60 l-32 -25 -21 36 c-89 151 -92
391 -7 571 19 40 37 73 40 73 3 0 43 -30 89 -67z m457 -619 c108 -51 200 -164
200 -245 0 -84 -57 -119 -194 -119 l-76 0 0 84 c0 90 -11 113 -49 101 -24 -7
-51 -86 -51 -146 l0 -38 -52 -6 c-29 -4 -73 -5 -98 -3 l-45 3 -1 85 c0 113 0
110 -33 110 -25 0 -31 -6 -46 -42 -9 -23 -19 -64 -22 -91 l-6 -49 -36 6 c-61
10 -86 36 -89 94 -5 88 57 176 167 236 79 43 145 56 261 53 93 -2 112 -6 170
-33z m1645 21 c80 -21 150 -61 207 -118 107 -107 93 -257 -25 -257 -34 0 -34
1 -40 53 -8 78 -32 127 -62 127 -35 0 -40 -15 -40 -110 l0 -85 -75 -3 c-112
-4 -120 -1 -121 56 -1 97 -37 161 -76 136 -15 -9 -18 -27 -19 -94 -1 -57 -6
-85 -15 -92 -21 -14 -146 0 -195 21 -48 22 -66 48 -66 97 0 74 85 185 181 233
97 50 236 64 346 36z"/>
<path d="M1914 5180 c-17 -4 -36 -10 -43 -15 -39 -23 -52 -151 -31 -300 11
-74 32 -105 72 -105 12 0 58 36 112 88 50 49 114 107 143 131 83 67 83 105 0
145 -93 43 -202 68 -253 56z"/>
<path d="M3815 5175 c-81 -17 -190 -68 -205 -94 -18 -34 -5 -55 71 -116 38
-31 103 -90 144 -131 103 -102 143 -98 165 17 14 72 15 237 2 271 -22 54 -83
73 -177 53z"/>
<path d="M2244 4341 c-52 -13 -119 -49 -146 -78 -37 -40 -42 -66 -19 -94 18
-23 21 -23 62 -11 170 51 247 53 342 9 68 -31 100 -21 105 31 3 27 -3 39 -31
66 -56 53 -121 79 -207 82 -41 2 -89 0 -106 -5z"/>
<path d="M3414 4330 c-70 -28 -134 -88 -134 -126 0 -60 33 -67 125 -29 82 33
171 34 271 0 92 -31 100 -31 119 -1 28 42 -14 100 -105 147 -65 33 -204 37
-276 9z"/>
<path d="M2790 4057 c-19 -7 -41 -24 -50 -39 -14 -26 -13 -31 10 -75 21 -41
79 -90 124 -106 19 -7 -35 -97 -73 -123 -27 -18 -49 -24 -89 -24 -83 0 -127
28 -193 121 -12 17 -21 21 -41 16 -14 -4 -28 -13 -31 -21 -18 -47 59 -158 136
-195 105 -51 233 -34 308 42 l43 43 33 -37 c94 -104 284 -105 387 -3 55 56 81
135 54 162 -22 22 -47 13 -72 -25 -30 -48 -53 -69 -99 -88 -84 -35 -168 -11
-217 63 -38 57 -38 69 3 85 43 19 94 72 108 114 14 44 -7 78 -58 92 -51 14
-239 13 -283 -2z"/>
<path d="M1943 3936 c-102 -25 -123 -38 -123 -71 0 -55 44 -56 181 -4 73 28
79 33 79 59 0 16 -7 30 -16 34 -20 8 -13 9 -121 -18z"/>
<path d="M3802 3951 c-8 -4 -12 -21 -10 -36 3 -27 10 -31 98 -62 52 -18 104
-33 115 -33 46 0 62 59 23 84 -13 8 -65 24 -115 35 -107 24 -95 23 -111 12z"/>
<path d="M2032 3768 c-46 -22 -90 -52 -99 -65 -14 -21 -14 -25 1 -48 27 -40
45 -35 158 47 67 49 80 72 56 96 -18 18 -25 16 -116 -30z"/>
<path d="M3722 3798 c-17 -17 -15 -42 6 -60 43 -38 156 -108 173 -108 10 0 26
11 35 25 15 23 15 27 1 49 -14 20 -170 106 -194 106 -5 0 -14 -5 -21 -12z"/>
</g>
</svg>
