<?xml version="1.0" standalone="no"?>
<!DOCTYPE svg PUBLIC "-//W3C//DTD SVG 20010904//EN"
 "http://www.w3.org/TR/2001/REC-SVG-20010904/DTD/svg10.dtd">
<svg version="1.0" xmlns="http://www.w3.org/2000/svg"
 width="307.000000pt" height="307.000000pt" viewBox="0 0 307.000000 307.000000"
 preserveAspectRatio="xMidYMid meet">

<g transform="translate(0.000000,307.000000) scale(0.100000,-0.100000)"
fill="#000000" stroke="none">
<path d="M1511 2430 c-100 -21 -202 -96 -256 -189 -24 -41 -34 -51 -50 -47
-11 3 -51 12 -90 22 -38 9 -95 27 -126 40 -62 26 -145 32 -182 13 -12 -7 -39
-30 -60 -52 -41 -44 -48 -43 -67 16 -15 48 -69 103 -110 112 -85 19 -176 -33
-225 -130 -28 -56 -30 -65 -30 -179 0 -111 2 -126 28 -180 38 -82 87 -139 158
-182 49 -30 59 -42 55 -58 -70 -290 -46 -535 69 -706 l33 -49 -33 -21 c-36
-22 -75 -76 -75 -104 0 -9 9 -21 20 -28 11 -7 20 -18 20 -24 0 -36 133 -14
204 33 l39 25 68 -16 c94 -23 241 -21 320 4 35 10 65 18 66 16 2 -2 -1 -15 -7
-30 -12 -32 0 -62 27 -69 10 -3 53 -5 95 -6 68 0 81 3 107 25 36 30 67 94 76
157 4 26 9 47 12 47 2 0 29 -20 58 -44 85 -69 136 -89 235 -94 91 -4 93 -4
315 78 163 60 353 27 498 -86 51 -40 57 -43 57 -24 0 32 -91 115 -164 149
-135 65 -255 66 -451 5 -105 -32 -134 -37 -225 -38 -96 -1 -110 1 -156 26 -28
15 -65 42 -82 62 l-30 35 34 65 c58 109 77 242 53 386 -12 77 -51 169 -85 201
-13 12 -24 26 -24 30 0 4 23 12 50 18 67 14 107 35 153 79 42 41 77 123 77
182 0 36 -3 41 -35 54 -42 18 -60 52 -51 99 12 62 62 78 116 38 l29 -21 6 30
c8 38 -9 129 -34 178 -31 61 -80 97 -172 126 -94 30 -193 39 -258 26z m72 -25
c-125 -23 -194 -70 -240 -163 -24 -49 -28 -69 -28 -142 0 -75 4 -93 33 -154
44 -93 88 -152 210 -279 112 -117 146 -174 162 -274 31 -185 -12 -360 -116
-482 -21 -24 -34 -50 -34 -68 0 -49 -20 -102 -52 -139 -38 -43 -72 -58 -99
-44 -24 13 -26 75 -3 108 8 12 11 22 6 22 -19 0 -36 -33 -42 -79 -5 -43 -7
-46 -36 -49 -48 -5 -61 19 -39 68 10 22 16 42 14 45 -3 2 -41 -7 -84 -22 -103
-33 -228 -36 -331 -9 l-70 19 -42 -28 c-65 -43 -192 -66 -192 -36 0 18 43 61
87 87 26 15 42 29 36 31 -18 6 -69 -23 -108 -62 -39 -40 -45 -42 -45 -16 0 26
35 68 82 97 l39 25 -30 35 c-40 45 -63 91 -96 194 -39 117 -41 284 -6 445 19
87 24 143 25 270 1 158 2 161 34 229 45 97 42 136 -16 199 -49 52 -139 55
-204 7 -29 -21 -29 -21 -19 -2 20 38 83 81 128 88 79 12 138 -33 164 -126 16
-59 22 -64 44 -40 17 19 19 19 31 3 11 -17 14 -17 49 0 l37 17 -21 -29 c-12
-16 -21 -36 -21 -45 0 -18 35 -22 45 -6 3 5 16 15 28 21 21 12 21 12 4 -14
-23 -35 -21 -47 4 -47 15 0 19 4 15 16 -4 9 -2 22 3 28 13 17 24 76 14 76 -5
0 -20 -12 -34 -26 -13 -14 -32 -30 -42 -36 -17 -9 -17 -8 -3 20 8 15 22 34 30
41 40 33 -2 42 -49 11 -16 -11 -33 -20 -37 -20 -18 0 -6 34 21 61 26 25 37 29
88 29 39 0 72 -7 98 -20 21 -11 62 -24 90 -29 29 -5 77 -19 109 -30 l56 -20
19 37 c26 51 94 126 146 162 53 37 132 59 205 58 l55 0 -72 -13z m238 -39 c47
-20 105 -85 118 -133 14 -51 25 -123 19 -123 -3 0 -18 7 -35 15 -79 39 -153
-58 -108 -144 8 -16 28 -34 45 -41 25 -10 30 -18 30 -45 0 -123 -102 -225
-241 -241 l-55 -6 -65 73 c-87 98 -134 165 -166 235 -38 81 -39 207 -4 274 43
84 105 131 194 150 60 13 225 5 268 -14z m-1253 -132 c29 -19 62 -72 62 -100
0 -12 -14 -52 -32 -90 -31 -66 -32 -75 -36 -221 -2 -84 -7 -153 -11 -153 -4 0
-27 13 -52 28 -115 74 -181 217 -166 363 11 99 50 158 124 185 41 15 75 11
111 -12z m1114 -1358 c105 -100 216 -110 467 -41 183 50 259 56 352 29 65 -19
135 -54 169 -83 16 -14 6 -11 -26 9 -125 74 -307 89 -451 36 -40 -14 -105 -38
-145 -52 -97 -35 -216 -32 -293 9 -72 37 -140 99 -132 120 3 9 8 17 10 17 2 0
24 -20 49 -44z"/>
<path d="M1091 1878 c7 -13 21 -29 31 -36 25 -18 20 -56 -9 -60 -13 -2 -27 5
-37 20 l-16 22 0 -27 c0 -63 80 -90 119 -41 12 15 21 32 21 39 0 22 -41 65
-82 86 l-39 20 12 -23z"/>
<path d="M696 1864 c-28 -16 -28 -16 -7 -30 24 -17 27 -37 7 -53 -19 -16 -46
-3 -46 23 -1 19 -2 19 -11 3 -7 -12 -6 -25 3 -45 10 -21 21 -28 49 -30 24 -2
42 3 53 13 21 21 21 69 0 90 -9 8 -13 22 -10 30 7 19 -1 18 -38 -1z"/>
<path d="M824 1641 c3 -5 -3 -11 -14 -14 -30 -8 -35 -6 -32 7 2 8 0 7 -9 -1
-15 -15 1 -37 44 -59 27 -15 31 -14 68 10 60 40 49 66 -27 66 -20 0 -33 -4
-30 -9z"/>
<path d="M791 1523 c-19 -10 -36 -23 -38 -30 -3 -7 11 -3 34 8 42 21 80 24
136 8 45 -12 59 -6 27 11 -40 21 -122 23 -159 3z"/>
<path d="M1180 1313 c-12 -32 -24 -92 -27 -133 -5 -63 -3 -78 11 -90 15 -12
21 -12 41 1 41 26 197 179 181 179 -8 0 -55 -38 -104 -85 -49 -47 -94 -85
-100 -85 -29 0 -16 133 22 224 19 45 19 46 7 46 -5 0 -19 -26 -31 -57z"/>
<path d="M734 1268 c3 -46 9 -100 12 -120 8 -49 -14 -51 -48 -5 -32 40 -88
151 -88 172 0 8 -5 15 -11 15 -27 0 34 -136 90 -202 46 -53 77 -50 74 7 -6
122 -17 215 -26 215 -6 0 -7 -29 -3 -82z"/>
</g>
</svg>
